G04 Title: (unknown), layergroup #1 *
G04 Creator: pcb-bin 1.99p *
G04 CreationDate: Tue Apr 19 06:04:17 2005 UTC *
G04 For: alan *
G04 Format: Gerber/RS-274X *
G04 PCB-Dimensions: 160000 400000 *
G04 PCB-Coordinate-Origin: lower left *
%MOIN*%
%FSLAX24Y24*%
G04 contains layers solder (0) GND-sldr (1) Vcc-sldr (2) *
%IPPOS*%
%ADD11C,0.0250*%
%ADD12C,0.0800*%
%ADD13C,0.0100*%
%ADD14C,0.0080*%
%ADD15R,0.0600X0.0600*%
%ADD16C,0.0600*%
%ADD17C,0.0200*%
%ADD18R,0.0500X0.0500*%
%ADD19C,0.0500*%
%ADD20C,0.0137*%
%ADD21C,0.2100*%
%LNGROUP_0*%
%LPD*%
G01X0Y0D02*
G54D11*X11600Y4500D02*Y4000D01*
X9500Y6600D02*X11600Y4500D01*
X9500Y7600D02*Y6600D01*
X9100Y9600D02*X8600Y9100D01*
X5600Y4900D02*X4500Y6000D01*
X5600Y4000D02*Y4900D01*
X6600Y5600D02*Y4000D01*
X6100Y6100D02*X6600Y5600D01*
X5400Y6100D02*X6100D01*
X5100Y6400D02*X5400Y6100D01*
X5100Y9700D02*Y6400D01*
X6000Y10600D02*X5100Y9700D01*
X5700Y8300D02*X6000Y8600D01*
X5700Y6700D02*Y8300D01*
X7000Y6700D02*X5700D01*
X7600Y6100D02*X7000Y6700D01*
X7600Y4000D02*Y6100D01*
X11600Y32400D02*X13600Y30400D01*
X10600Y18600D02*X11400Y17800D01*
Y15000D01*
X10000Y13600D01*
X10600Y22800D02*X10800Y22600D01*
X6500Y7600D02*X7000D01*
X8000Y8600D01*
Y32400D01*
X9500Y16600D02*X10800D01*
X9500Y28200D02*X8000D01*
X9500Y24000D02*X8000D01*
X9500Y19800D02*X8000D01*
X9500Y15600D02*X8000D01*
X6500Y34400D02*X6000D01*
X5300Y35100D01*
Y35400D01*
X2400Y34700D02*X5300Y31800D01*
Y31400D01*
Y30700D02*X5800Y30200D01*
X6500D01*
X2400Y30500D02*X5300Y27600D01*
Y26700D01*
Y26000D02*X6500D01*
X2400Y26300D02*X5300Y23400D01*
Y22000D01*
Y21300D02*X6000D01*
X6500Y21800D01*
X2400Y22100D02*X5300Y19200D01*
Y17300D01*
X2400Y36700D02*X1500D01*
Y19900D01*
X1300Y16800D02*X2400Y17900D01*
X1500Y24100D02*X2400D01*
Y28300D02*X1500D01*
X2400Y32500D02*X1500D01*
X1300Y15800D02*Y16800D01*
X1500Y19900D02*X3300D01*
Y14000D01*
X2400D01*
X6500Y17600D02*X5300Y16400D01*
Y15800D01*
X6000Y12600D02*X6500D01*
X8000Y32400D02*X11600D01*
X13600D02*Y30400D01*
X6000Y8600D02*X6500D01*
X4500Y6000D02*Y11100D01*
X9500Y33400D02*X10800D01*
X10600Y35400D02*X10800Y35200D01*
X9500Y35400D02*X13600D01*
X9500Y29200D02*X10800D01*
X9500Y31200D02*X10600D01*
X10800Y31000D01*
X9500Y25000D02*X10800D01*
X9500Y18600D02*X10600D01*
X13100Y27000D02*X13600Y27500D01*
X9500Y20800D02*X10800D01*
X9500Y22800D02*X10600D01*
X9500Y27000D02*X13100D01*
X10000Y13600D02*X9500D01*
X8600Y4000D02*Y9100D01*
X9100Y9600D02*X9500D01*
X13600Y27500D02*Y28400D01*
X6000Y10600D02*X6500D01*
X4500Y11100D02*X6000Y12600D01*
G04 Text: Copyright Alan Garfield (c) 2005 *
G54D14*X12736Y11783D02*Y12032D01*
X12819Y11700D02*X12736Y11783D01*
X12819Y11700D02*X13317D01*
X13400Y11783D01*
Y12032D01*
X12819Y12231D02*X12985D01*
X13068Y12314D01*
Y12480D01*
X12985Y12563D01*
X12819D02*X12985D01*
X12736Y12480D02*X12819Y12563D01*
X12736Y12314D02*Y12480D01*
X12819Y12231D02*X12736Y12314D01*
X12487Y12845D02*X12985D01*
X13068Y12762D02*X12985Y12845D01*
X13068Y12928D01*
Y13094D01*
X12985Y13177D01*
X12819D02*X12985D01*
X12736Y13094D02*X12819Y13177D01*
X12736Y12928D02*Y13094D01*
X12819Y12845D02*X12736Y12928D01*
X12819Y13377D02*X13068D01*
X12819D02*X12736Y13460D01*
X12570Y13709D02*X13068D01*
X12487Y13626D02*X12570Y13709D01*
X12487Y13460D02*Y13626D01*
X12570Y13377D02*X12487Y13460D01*
X12736D02*Y13626D01*
X12819Y13709D01*
X12736Y13991D02*X12985D01*
X13068Y14074D01*
Y14240D01*
Y13908D02*X12985Y13991D01*
X13151Y14439D02*X13234D01*
X12736D02*X12985D01*
X13068Y14854D02*X12985Y14937D01*
X13068Y14688D02*Y14854D01*
X12985Y14605D02*X13068Y14688D01*
X12819Y14605D02*X12985D01*
X12819D02*X12736Y14688D01*
Y14854D01*
X12819Y14937D01*
X12570Y14605D02*X12487Y14688D01*
Y14854D01*
X12570Y14937D01*
X13068D01*
X12736Y15137D02*X13400D01*
X12985D02*X13068Y15220D01*
Y15386D01*
X12985Y15469D01*
X12736D02*X12985D01*
X12819Y15751D02*X13400D01*
X12819D02*X12736Y15834D01*
X13151Y15668D02*Y15834D01*
X12736Y16299D02*X13317D01*
X13400Y16382D01*
Y16631D01*
X13317Y16714D01*
X12736D02*X13317D01*
X13068Y16299D02*Y16714D01*
X12819Y16914D02*X13400D01*
X12819D02*X12736Y16997D01*
X13068Y17412D02*X12985Y17495D01*
X13068Y17246D02*Y17412D01*
X12985Y17163D02*X13068Y17246D01*
X12819Y17163D02*X12985D01*
X12819D02*X12736Y17246D01*
X12819Y17495D02*X13068D01*
X12819D02*X12736Y17578D01*
Y17246D02*Y17412D01*
X12819Y17495D01*
X12736Y17860D02*X12985D01*
X13068Y17943D01*
Y18026D01*
X12985Y18109D01*
X12736D02*X12985D01*
X13068Y17777D02*X12985Y17860D01*
X13400Y18939D02*X13317Y19022D01*
X13400Y18690D02*Y18939D01*
X13317Y18607D02*X13400Y18690D01*
X12819Y18607D02*X13317D01*
X12819D02*X12736Y18690D01*
Y18939D01*
X12819Y19022D01*
X12985D01*
X13068Y18939D02*X12985Y19022D01*
X13068Y18773D02*Y18939D01*
Y19471D02*X12985Y19554D01*
X13068Y19305D02*Y19471D01*
X12985Y19222D02*X13068Y19305D01*
X12819Y19222D02*X12985D01*
X12819D02*X12736Y19305D01*
X12819Y19554D02*X13068D01*
X12819D02*X12736Y19637D01*
Y19305D02*Y19471D01*
X12819Y19554D01*
X12736Y19919D02*X12985D01*
X13068Y20002D01*
Y20168D01*
Y19836D02*X12985Y19919D01*
X12736Y20450D02*X13317D01*
X13400Y20533D01*
Y20616D01*
X13068Y20367D02*Y20533D01*
X13151Y20783D02*X13234D01*
X12736D02*X12985D01*
X12736Y21032D02*Y21281D01*
X12819Y20949D02*X12736Y21032D01*
X12819Y20949D02*X12985D01*
X13068Y21032D01*
Y21198D01*
X12985Y21281D01*
X12902Y20949D02*Y21281D01*
X12985D01*
X12819Y21480D02*X13400D01*
X12819D02*X12736Y21563D01*
Y22061D02*X13400D01*
X12736Y21978D02*X12819Y22061D01*
X12736Y21812D02*Y21978D01*
X12819Y21729D02*X12736Y21812D01*
X12819Y21729D02*X12985D01*
X13068Y21812D01*
Y21978D01*
X12985Y22061D01*
X12819Y22559D02*X12736Y22642D01*
X13317Y22559D02*X13400Y22642D01*
X12819Y22559D02*X13317D01*
X13068Y22925D02*Y23174D01*
X12985Y22842D02*X13068Y22925D01*
X12819Y22842D02*X12985D01*
X12819D02*X12736Y22925D01*
Y23174D01*
X13400Y23373D02*X13317Y23456D01*
X12819D02*X13317D01*
X12736Y23373D02*X12819Y23456D01*
X13317Y23954D02*X13400Y24037D01*
Y24286D01*
X13317Y24369D01*
X13151D02*X13317D01*
X12736Y23954D02*X13151Y24369D01*
X12736Y23954D02*Y24369D01*
X12819Y24569D02*X12736Y24652D01*
X12819Y24569D02*X13317D01*
X13400Y24652D01*
Y24818D01*
X13317Y24901D01*
X12819D02*X13317D01*
X12736Y24818D02*X12819Y24901D01*
X12736Y24652D02*Y24818D01*
X12902Y24569D02*X13234Y24901D01*
X12819Y25100D02*X12736Y25183D01*
X12819Y25100D02*X13317D01*
X13400Y25183D01*
Y25349D01*
X13317Y25432D01*
X12819D02*X13317D01*
X12736Y25349D02*X12819Y25432D01*
X12736Y25183D02*Y25349D01*
X12902Y25100D02*X13234Y25432D01*
X13400Y25631D02*Y25963D01*
X13068Y25631D02*X13400D01*
X13068D02*X13151Y25714D01*
Y25880D01*
X13068Y25963D01*
X12819D02*X13068D01*
X12736Y25880D02*X12819Y25963D01*
X12736Y25714D02*Y25880D01*
X12819Y25631D02*X12736Y25714D01*
G04 Text: PICStep Opto-Iscolated BOB (Input) *
X14336Y11183D02*X15000D01*
Y11100D02*Y11432D01*
X14917Y11515D01*
X14751D02*X14917D01*
X14668Y11432D02*X14751Y11515D01*
X14668Y11183D02*Y11432D01*
X15000Y11714D02*Y11880D01*
X14336Y11797D02*X15000D01*
X14336Y11714D02*Y11880D01*
Y12162D02*Y12411D01*
X14419Y12079D02*X14336Y12162D01*
X14419Y12079D02*X14917D01*
X15000Y12162D01*
Y12411D01*
Y12943D02*X14917Y13026D01*
X15000Y12694D02*Y12943D01*
X14917Y12611D02*X15000Y12694D01*
X14751Y12611D02*X14917D01*
X14751D02*X14668Y12694D01*
Y12943D01*
X14585Y13026D01*
X14419D02*X14585D01*
X14336Y12943D02*X14419Y13026D01*
X14336Y12694D02*Y12943D01*
X14419Y12611D02*X14336Y12694D01*
X14419Y13308D02*X15000D01*
X14419D02*X14336Y13391D01*
X14751Y13225D02*Y13391D01*
X14336Y13640D02*Y13889D01*
X14419Y13557D02*X14336Y13640D01*
X14419Y13557D02*X14585D01*
X14668Y13640D01*
Y13806D01*
X14585Y13889D01*
X14502Y13557D02*Y13889D01*
X14585D01*
X14087Y14171D02*X14585D01*
X14668Y14088D02*X14585Y14171D01*
X14668Y14254D01*
Y14420D01*
X14585Y14503D01*
X14419D02*X14585D01*
X14336Y14420D02*X14419Y14503D01*
X14336Y14254D02*Y14420D01*
X14419Y14171D02*X14336Y14254D01*
X14419Y15002D02*X14917D01*
X15000Y15085D01*
Y15251D01*
X14917Y15334D01*
X14419D02*X14917D01*
X14336Y15251D02*X14419Y15334D01*
X14336Y15085D02*Y15251D01*
X14419Y15002D02*X14336Y15085D01*
X14087Y15616D02*X14585D01*
X14668Y15533D02*X14585Y15616D01*
X14668Y15699D01*
Y15865D01*
X14585Y15948D01*
X14419D02*X14585D01*
X14336Y15865D02*X14419Y15948D01*
X14336Y15699D02*Y15865D01*
X14419Y15616D02*X14336Y15699D01*
X14419Y16230D02*X15000D01*
X14419D02*X14336Y16313D01*
X14751Y16147D02*Y16313D01*
X14419Y16480D02*X14585D01*
X14668Y16563D01*
Y16729D01*
X14585Y16812D01*
X14419D02*X14585D01*
X14336Y16729D02*X14419Y16812D01*
X14336Y16563D02*Y16729D01*
X14419Y16480D02*X14336Y16563D01*
X14668Y17011D02*Y17343D01*
X15000Y17542D02*Y17708D01*
X14336Y17625D02*X15000D01*
X14336Y17542D02*Y17708D01*
Y17991D02*Y18240D01*
X14419Y18323D01*
X14502Y18240D02*X14419Y18323D01*
X14502Y17991D02*Y18240D01*
X14585Y17908D02*X14502Y17991D01*
X14585Y17908D02*X14668Y17991D01*
Y18240D01*
X14585Y18323D01*
X14419Y17908D02*X14336Y17991D01*
X14668Y18605D02*Y18854D01*
X14585Y18522D02*X14668Y18605D01*
X14419Y18522D02*X14585D01*
X14419D02*X14336Y18605D01*
Y18854D01*
X14419Y19053D02*X14585D01*
X14668Y19136D01*
Y19302D01*
X14585Y19385D01*
X14419D02*X14585D01*
X14336Y19302D02*X14419Y19385D01*
X14336Y19136D02*Y19302D01*
X14419Y19053D02*X14336Y19136D01*
X14419Y19585D02*X15000D01*
X14419D02*X14336Y19668D01*
X14668Y20083D02*X14585Y20166D01*
X14668Y19917D02*Y20083D01*
X14585Y19834D02*X14668Y19917D01*
X14419Y19834D02*X14585D01*
X14419D02*X14336Y19917D01*
X14419Y20166D02*X14668D01*
X14419D02*X14336Y20249D01*
Y19917D02*Y20083D01*
X14419Y20166D01*
Y20531D02*X15000D01*
X14419D02*X14336Y20614D01*
X14751Y20448D02*Y20614D01*
X14336Y20863D02*Y21112D01*
X14419Y20780D02*X14336Y20863D01*
X14419Y20780D02*X14585D01*
X14668Y20863D01*
Y21029D01*
X14585Y21112D01*
X14502Y20780D02*Y21112D01*
X14585D01*
X14336Y21644D02*X15000D01*
X14336Y21561D02*X14419Y21644D01*
X14336Y21395D02*Y21561D01*
X14419Y21312D02*X14336Y21395D01*
X14419Y21312D02*X14585D01*
X14668Y21395D01*
Y21561D01*
X14585Y21644D01*
X14336Y22142D02*Y22474D01*
X14419Y22557D01*
X14585D01*
X14668Y22474D02*X14585Y22557D01*
X14668Y22225D02*Y22474D01*
X14336Y22225D02*X15000D01*
Y22142D02*Y22474D01*
X14917Y22557D01*
X14751D02*X14917D01*
X14668Y22474D02*X14751Y22557D01*
X14419Y22756D02*X14917D01*
X15000Y22839D01*
Y23005D01*
X14917Y23088D01*
X14419D02*X14917D01*
X14336Y23005D02*X14419Y23088D01*
X14336Y22839D02*Y23005D01*
X14419Y22756D02*X14336Y22839D01*
Y23288D02*Y23620D01*
X14419Y23703D01*
X14585D01*
X14668Y23620D02*X14585Y23703D01*
X14668Y23371D02*Y23620D01*
X14336Y23371D02*X15000D01*
Y23288D02*Y23620D01*
X14917Y23703D01*
X14751D02*X14917D01*
X14668Y23620D02*X14751Y23703D01*
X14419Y24201D02*X14336Y24284D01*
X14917Y24201D02*X15000Y24284D01*
X14419Y24201D02*X14917D01*
X15000Y24483D02*Y24649D01*
X14336Y24566D02*X15000D01*
X14336Y24483D02*Y24649D01*
Y24932D02*X14585D01*
X14668Y25015D01*
Y25098D01*
X14585Y25181D01*
X14336D02*X14585D01*
X14668Y24849D02*X14585Y24932D01*
X14087Y25463D02*X14585D01*
X14668Y25380D02*X14585Y25463D01*
X14668Y25546D01*
Y25712D01*
X14585Y25795D01*
X14419D02*X14585D01*
X14336Y25712D02*X14419Y25795D01*
X14336Y25546D02*Y25712D01*
X14419Y25463D02*X14336Y25546D01*
X14419Y25994D02*X14668D01*
X14419D02*X14336Y26077D01*
Y26243D01*
X14419Y26326D01*
X14668D01*
X14419Y26609D02*X15000D01*
X14419D02*X14336Y26692D01*
X14751Y26526D02*Y26692D01*
X15000Y26858D02*X14917Y26941D01*
X14419D02*X14917D01*
X14336Y26858D02*X14419Y26941D01*
G54D12*X13600Y30400D03*
Y28400D03*
G54D15*X6500Y13600D03*
G54D16*Y12600D03*
Y11600D03*
Y10600D03*
Y9600D03*
Y8600D03*
Y7600D03*
X9500D03*
Y8600D03*
Y9600D03*
Y10600D03*
Y11600D03*
Y12600D03*
Y13600D03*
G54D15*X13600Y10500D03*
G54D16*Y9500D03*
Y8500D03*
Y7500D03*
Y6500D03*
G54D12*X2400Y17900D03*
Y19900D03*
Y22100D03*
Y24100D03*
Y26300D03*
Y28300D03*
Y30500D03*
Y32500D03*
Y34700D03*
Y36700D03*
G54D18*X5300Y31400D03*
G54D19*Y35400D03*
G54D18*Y26700D03*
G54D19*Y30700D03*
G54D18*Y22000D03*
G54D19*Y26000D03*
G54D18*Y17300D03*
G54D19*Y21300D03*
G54D18*X1300Y15800D03*
G54D19*X5300D03*
G54D15*X6500Y35400D03*
G54D16*Y34400D03*
Y33400D03*
Y32400D03*
X9500D03*
Y33400D03*
Y34400D03*
Y35400D03*
G54D15*X6500Y31200D03*
G54D16*Y30200D03*
Y29200D03*
Y28200D03*
X9500D03*
Y29200D03*
Y30200D03*
Y31200D03*
G54D15*X6500Y27000D03*
G54D16*Y26000D03*
Y25000D03*
Y24000D03*
X9500D03*
Y25000D03*
Y26000D03*
Y27000D03*
G54D15*X6500Y18600D03*
G54D16*Y17600D03*
Y16600D03*
Y15600D03*
X9500D03*
Y16600D03*
Y17600D03*
Y18600D03*
G54D15*X6500Y22800D03*
G54D16*Y21800D03*
Y20800D03*
Y19800D03*
X9500D03*
Y20800D03*
Y21800D03*
Y22800D03*
G54D12*X2400Y12000D03*
Y14000D03*
G54D16*X10800Y18400D03*
Y16600D03*
Y22600D03*
Y20800D03*
Y26800D03*
Y25000D03*
Y31000D03*
Y29200D03*
Y35200D03*
Y33400D03*
X13614Y32447D03*
X13615Y35395D03*
G54D15*X4600Y4000D03*
G54D16*X5600D03*
X6600D03*
X7600D03*
X8600D03*
X9600D03*
X10600D03*
X11600D03*
X12600D03*
X13600D03*
G54D21*X3607Y1307D03*
X11807Y38507D03*
Y1307D03*
M02*
